<svg width="708" height="296" viewBox="0 0 708 296" fill="none" xmlns="http://www.w3.org/2000/svg">
<g filter="url(#filter0_dd_2320_35539)">
<path d="M221.345 95.9685C221.345 84.1647 213.627 77.0144 199.099 74.1769L183.323 71.1125C179.01 70.318 175.378 68.1616 175.378 64.5296C175.378 60.1032 179.237 56.6983 185.593 56.6983C192.743 56.6983 197.737 61.4652 198.305 68.8425H219.983C218.734 51.2504 204.774 40.1277 185.366 40.1277C167.093 40.1277 153.7 50.7964 153.7 66.0051C153.7 79.1708 162.326 86.7752 175.378 89.2721L190.246 92.1095C195.013 93.0175 198.532 95.628 198.532 99.1464C198.532 104.254 193.651 107.091 186.274 107.091C177.421 107.091 172.314 102.211 172.087 94.493H150.409C151.884 112.539 165.504 123.775 186.728 123.775C207.952 123.775 221.345 112.766 221.345 95.9685ZM293.969 92.1095C293.969 74.6309 283.187 60.4437 266.729 60.4437C259.579 60.4437 253.564 63.2812 248.57 68.5021V61.5787H230.751V144.545H250.159V116.966C254.926 121.505 260.374 123.775 266.729 123.775C283.187 123.775 293.969 109.815 293.969 92.1095ZM273.766 92.1095C273.766 101.87 267.978 106.297 262.076 106.297C256.174 106.297 250.386 101.984 250.386 92.223C250.386 82.5757 256.061 77.9223 262.076 77.9223C267.978 77.9223 273.766 82.5757 273.766 92.1095ZM324.814 47.3915C324.814 40.9222 319.706 36.2688 312.329 36.2688C304.951 36.2688 299.844 40.9222 299.844 47.3915C299.844 53.7474 304.951 58.4008 312.329 58.4008C319.706 58.4008 324.814 53.7474 324.814 47.3915ZM322.203 122.64V61.5787H302.795V122.64H322.203ZM354.346 90.5206C354.346 81.3273 358.659 77.9223 363.426 77.9223C369.328 77.9223 372.052 82.1218 372.052 89.8396V122.64H391.46V83.3702C391.46 68.5021 382.947 60.4437 370.917 60.4437C363.199 60.4437 357.524 63.6217 352.757 68.956V61.5787H334.938V122.64H354.346V90.5206ZM468.349 103.573C466.192 104.935 463.128 105.729 459.95 105.729C454.616 105.729 452.119 103.005 452.119 97.1034V78.4898H468.803V61.5787H452.119V43.6461H432.711V61.5787H421.361V78.4898H432.711V101.643C432.711 115.604 440.769 123.775 454.502 123.775C459.95 123.775 464.036 122.867 468.349 120.484V103.573ZM504.4 123.775C522.446 123.775 536.293 109.588 536.293 92.1095C536.293 74.6309 522.446 60.4437 504.4 60.4437C486.354 60.4437 472.508 74.6309 472.508 92.1095C472.508 109.588 486.354 123.775 504.4 123.775ZM504.4 106.41C498.385 106.41 492.71 101.643 492.71 92.1095C492.71 82.5757 498.385 77.9223 504.4 77.9223C510.416 77.9223 516.091 82.5757 516.091 92.1095C516.091 101.643 510.416 106.41 504.4 106.41ZM105.268 258.64H126.833L147.603 177.149H126.606L115.483 225.953L102.998 177.149H81.3201L68.3814 225.726L57.3722 177.149H36.3751L57.0317 258.64H78.7097L91.9889 207.907L105.268 258.64ZM176.679 183.392C176.679 176.922 171.572 172.269 164.195 172.269C156.817 172.269 151.71 176.922 151.71 183.392C151.71 189.747 156.817 194.401 164.195 194.401C171.572 194.401 176.679 189.747 176.679 183.392ZM174.069 258.64V197.579H154.661V258.64H174.069ZM206.212 226.521C206.212 217.327 210.525 213.922 215.292 213.922C221.193 213.922 223.917 218.122 223.917 225.84V258.64H243.325V219.37C243.325 204.502 234.813 196.444 222.782 196.444C215.065 196.444 209.39 199.622 204.623 204.956V197.579H186.804V258.64H206.212V226.521ZM321.009 258.64V196.557H345.979V177.149H274.589V196.557H299.558V258.64H321.009ZM375.33 259.775C393.376 259.775 407.223 245.588 407.223 228.11C407.223 210.631 393.376 196.444 375.33 196.444C357.284 196.444 343.437 210.631 343.437 228.11C343.437 245.588 357.284 259.775 375.33 259.775ZM375.33 242.41C369.315 242.41 363.64 237.643 363.64 228.11C363.64 218.576 369.315 213.922 375.33 213.922C381.346 213.922 387.02 218.576 387.02 228.11C387.02 237.643 381.346 242.41 375.33 242.41ZM435.534 258.64V230.833L455.283 258.64H480.025L454.262 226.521L476.848 197.579H454.489L435.534 222.321V177.149H416.126V258.64H435.534ZM509.655 259.662C524.863 259.662 535.645 251.831 539.391 237.87H519.983C518.28 242.297 514.648 244.567 509.201 244.567C502.958 244.567 499.326 240.708 498.305 232.99H539.731C543.25 212.901 529.744 196.444 509.541 196.444C491.381 196.444 478.216 209.723 478.216 227.996C478.216 246.95 490.814 259.662 509.655 259.662ZM509.087 210.744C514.875 210.744 518.734 214.717 518.961 220.846H498.532C499.894 214.036 503.299 210.744 509.087 210.744ZM568.539 226.521C568.539 217.327 572.852 213.922 577.619 213.922C583.521 213.922 586.245 218.122 586.245 225.84V258.64H605.653V219.37C605.653 204.502 597.141 196.444 585.11 196.444C577.392 196.444 571.717 199.622 566.95 204.956V197.579H549.131V258.64H568.539V226.521ZM671.989 237.87C671.989 229.131 665.746 223.343 653.943 221.186L641.004 218.803C637.145 218.122 635.216 217.327 635.216 214.717C635.216 211.993 638.167 210.744 642.706 210.744C648.041 210.744 651.786 213.695 652.24 218.576H670.854C669.719 204.956 658.596 196.444 642.593 196.444C626.59 196.444 616.602 204.729 616.602 216.533C616.602 226.407 623.412 232.536 634.081 234.465L646.111 236.622C650.311 237.416 652.354 238.551 652.354 241.275C652.354 244.453 648.381 245.475 643.955 245.475C637.259 245.475 632.605 242.183 632.605 237.076H613.992C615.24 251.15 625.228 259.775 643.614 259.775C662.001 259.775 671.989 251.377 671.989 237.87Z" fill="url(#paint0_linear_2320_35539)"/>
</g>
<defs>
<filter id="filter0_dd_2320_35539" x="0.907021" y="0.800819" width="706.549" height="294.443" filterUnits="userSpaceOnUse" color-interpolation-filters="sRGB">
<feFlood flood-opacity="0" result="BackgroundImageFix"/>
<feColorMatrix in="SourceAlpha" type="matrix" values="0 0 0 0 0 0 0 0 0 0 0 0 0 0 0 0 0 0 127 0" result="hardAlpha"/>
<feOffset/>
<feGaussianBlur stdDeviation="17.734"/>
<feComposite in2="hardAlpha" operator="out"/>
<feColorMatrix type="matrix" values="0 0 0 0 0.866667 0 0 0 0 0.676 0 0 0 0 0 0 0 0 0.6 0"/>
<feBlend mode="normal" in2="BackgroundImageFix" result="effect1_dropShadow_2320_35539"/>
<feColorMatrix in="SourceAlpha" type="matrix" values="0 0 0 0 0 0 0 0 0 0 0 0 0 0 0 0 0 0 127 0" result="hardAlpha"/>
<feOffset/>
<feGaussianBlur stdDeviation="2.36453"/>
<feComposite in2="hardAlpha" operator="out"/>
<feColorMatrix type="matrix" values="0 0 0 0 0.866667 0 0 0 0 0.676 0 0 0 0 0 0 0 0 1 0"/>
<feBlend mode="normal" in2="effect1_dropShadow_2320_35539" result="effect2_dropShadow_2320_35539"/>
<feBlend mode="normal" in="SourceGraphic" in2="effect2_dropShadow_2320_35539" result="shape"/>
</filter>
<linearGradient id="paint0_linear_2320_35539" x1="355.349" y1="10.6404" x2="355.349" y2="282.64" gradientUnits="userSpaceOnUse">
<stop stop-color="#FFF282"/>
<stop offset="1" stop-color="#FFD12F"/>
</linearGradient>
</defs>
</svg>
